<svg xmlns="http://www.w3.org/2000/svg" xmlns:xlink="http://www.w3.org/1999/xlink" viewBox="0 0 37.43 34.91"><defs><style>.cls-1{fill:url(#linear-gradient);}.cls-2{fill:url(#linear-gradient-2);}.cls-3{fill:url(#linear-gradient-3);}</style><linearGradient id="linear-gradient" x1="9.26" y1="9.93" x2="24.41" y2="25.08" gradientUnits="userSpaceOnUse"><stop offset="0" stop-color="#6cc"/><stop offset="1" stop-color="#96c"/></linearGradient><linearGradient id="linear-gradient-2" x1="29.22" y1="12.16" x2="35.13" y2="18.07" gradientUnits="userSpaceOnUse"><stop offset="0" stop-color="#8986dc"/><stop offset="1" stop-color="#9372d2"/></linearGradient><linearGradient id="linear-gradient-3" x1="5.11" y1="5.11" x2="29.8" y2="29.8" xlink:href="#linear-gradient"/></defs><title>stroke-gradient</title><g id="Layer_2" data-name="Layer 2"><g id="Layer_1-2" data-name="Layer 1"><path class="cls-1" d="M22.87,18q.89-.41,1.8-.72a1.65,1.65,0,0,0-.43-.92,2.41,2.41,0,0,0-1.72-.57h0c-4.53,1.88-8,4.83-9.24,7.54a3.85,3.85,0,0,0,1.18,5.07,4.35,4.35,0,0,0,2.59.8A9,9,0,0,0,22.36,27c3-2.37,5.49-6.27,5.1-9.76,0-.11,0-.23-.05-.34s0-.26-.07-.39a4.32,4.32,0,0,0-1-2,2,2,0,0,0-.25-.25L26,14.12c-1.5-1.29-4.16-1.46-7.94-.49,2.38-2.94,3-4.75,2.2-6a2.62,2.62,0,0,0-2-1.1c-2.58-.31-7,1.6-9.89,4.27A1.08,1.08,0,1,0,9.84,12.4C12.48,10,16.26,8.48,18,8.68a1.08,1.08,0,0,1,.45.14c0,.29-.22,1.59-4.12,5.83-.46.49-.55.58-.62.86A1.11,1.11,0,0,0,14,16.59c.49.45,1,.28,1.57.06A22.08,22.08,0,0,1,22,15.15a6.14,6.14,0,0,1,1.08,0l.27.05.3.07a2.17,2.17,0,0,1,1.65,2c0,.06,0,.14,0,.21a1.69,1.69,0,0,1,0,.23c0,.21,0,.42,0,.63-.19,2.43-2.08,5.2-4.29,6.94-1.65,1.3-3.93,2.33-5.33,1.34-.51-.37-1.1-1-.47-2.45C16.19,22,19.18,19.59,22.87,18Z"/><path class="cls-2" d="M36.58,14.27c-.45-.1-.91-.18-1.37-.25l-.65-.09c-.7-.08-1.4-.12-2.09-.13h-.4a24,24,0,0,0-5,.55,5,5,0,0,1,.9,2A21.37,21.37,0,0,1,32.11,16h.73a19.19,19.19,0,0,1,2,.19l.39.06c.29.05.58.1.87.17a1.08,1.08,0,0,0,.46-2.11Z"/><path class="cls-3" d="M32.88,16.57c0,.29,0,.59,0,.89a15.48,15.48,0,1,1-.61-4.28,20.66,20.66,0,0,1,2.11.12,17.46,17.46,0,1,0,.5,4.16c0-.23,0-.46,0-.7C34.34,16.67,33.56,16.61,32.88,16.57Z"/></g></g></svg>